# xmcd
#
# Track frame offsets: 
#        150
#        23544
#        43609
#        68372
#        86477
#        109706
#        129021
#        147049
#        168293
#        194399
#        211417
#        229901
#
# Disc length: 3413 seconds
#
# Revision: 0
# Processed by: cddbd v1.5.2PL0 Copyright (c) Steve Scherf et al.
# Submitted via: ExactAudioCopy v1.2
#
DISCID=900d530c
DTITLE=Big Harp George - Uptown Cool
DYEAR=2018
DGENRE=Blues
TTITLE0=Down to the Rite Aid
TTITLE1=Internet Honey
TTITLE2=Alternative Facts
TTITLE3=I Wanna Know
TTITLE4=Nobody's Listening
TTITLE5=In the First Place
TTITLE6=Standing in the Weather
TTITLE7=Bulletproof
TTITLE8=Cold Snap by the Bay
TTITLE9=Just Calm Yourself
TTITLE10=Uptown Cool
TTITLE11=Lord Make Me Chaste
EXTD=
EXTT0=
EXTT1=
EXTT2=
EXTT3=
EXTT4=
EXTT5=
EXTT6=
EXTT7=
EXTT8=
EXTT9=
EXTT10=
EXTT11=
PLAYORDER=
